<svg width="424" height="400" viewBox="0 0 424 400" fill="none" xmlns="http://www.w3.org/2000/svg">
<path d="M132.687 87.7311V29.2433H141.295V52.4712H167.35V29.2433H175.958V87.7311H167.35V61.0772H141.295V87.7311H132.687Z" fill="#ACC5DA"/>
<path d="M202.444 87.7311V62.4559L183.46 29.2433H193.298L206.94 53.432L220.505 29.2433H230.074L211.091 62.5394V87.7311H202.444Z" fill="#ACC5DA"/>
<path d="M237.541 87.7311V29.2433H257.024C260.842 29.2433 264.211 29.9674 267.131 31.4156C270.077 32.8361 272.383 34.8971 274.048 37.5986C275.714 40.2724 276.546 43.4892 276.546 47.2491C276.546 51.1204 275.778 54.393 274.24 57.0666C272.703 59.7125 270.461 61.7317 267.516 63.1243C264.595 64.489 261.034 65.1714 256.832 65.1714H246.149V87.7311H237.541ZM246.149 57.1502H256.947C260.432 57.1502 263.134 56.3564 265.056 54.769C266.977 53.1536 267.938 50.7166 267.938 47.458C267.938 44.2272 266.952 41.7485 264.979 40.0217C263.007 38.2949 260.355 37.4315 257.024 37.4315H246.149V57.1502Z" fill="#ACC5DA"/>
<path d="M286.251 87.7311V29.2433H306.58C310.32 29.2433 313.548 29.9535 316.264 31.3739C319.005 32.7664 321.118 34.7578 322.604 37.348C324.116 39.9382 324.871 43.0157 324.871 46.5806C324.871 49.4772 324.296 52.0395 323.143 54.2676C322.016 56.4957 320.427 58.3339 318.378 59.7821C316.328 61.2025 313.958 62.1635 311.268 62.6648L327.485 87.7311H317.071L302.199 64.1269H294.859V87.7311H286.251ZM294.859 56.3564H305.158C308.642 56.3564 311.345 55.5487 313.266 53.9334C315.213 52.318 316.187 50.0063 316.187 46.9985C316.187 43.907 315.316 41.4978 313.573 39.7711C311.858 38.0442 309.257 37.1809 305.773 37.1809H294.859V56.3564Z" fill="#ACC5DA"/>
<path d="M361.519 88.9843C357.471 88.9843 353.718 88.2181 350.259 86.6866C346.827 85.1264 343.829 82.9682 341.267 80.211C338.731 77.4537 336.745 74.223 335.31 70.5188C333.902 66.8146 333.197 62.804 333.197 58.4871C333.197 54.1423 333.902 50.1178 335.31 46.4135C336.745 42.7094 338.731 39.4786 341.267 36.7214C343.829 33.9641 346.827 31.8196 350.259 30.2877C353.718 28.7559 357.471 27.99 361.519 27.99C365.541 27.99 369.269 28.7699 372.701 30.3295C376.135 31.8892 379.132 34.0616 381.694 36.8467C384.256 39.6318 386.241 42.8765 387.65 46.5807C389.085 50.257 389.803 54.2259 389.803 58.4871C389.803 62.804 389.085 66.8146 387.65 70.5188C386.241 74.223 384.256 77.4537 381.694 80.211C379.132 82.9682 376.135 85.1264 372.701 86.6866C369.269 88.2181 365.541 88.9843 361.519 88.9843ZM361.519 80.1275C364.235 80.1275 366.758 79.6262 369.09 78.6235C371.446 77.593 373.496 76.1308 375.238 74.2369C376.981 72.3152 378.338 70.0314 379.311 67.3855C380.311 64.7118 380.811 61.7457 380.811 58.4871C380.811 54.1144 379.952 50.3127 378.235 47.082C376.545 43.8234 374.239 41.3029 371.318 39.5205C368.398 37.738 365.131 36.8467 361.519 36.8467C358.804 36.8467 356.267 37.362 353.91 38.3924C351.578 39.395 349.529 40.8433 347.762 42.7372C346.019 44.6311 344.649 46.9149 343.649 49.5886C342.676 52.2345 342.189 55.2006 342.189 58.4871C342.189 62.8597 343.047 66.6753 344.764 69.9339C346.481 73.1646 348.786 75.6713 351.682 77.4537C354.602 79.2362 357.881 80.1275 361.519 80.1275Z" fill="#ACC5DA"/>
<path d="M0.137634 398.284V346.295H7.78925V366.942H30.9491V346.295H38.6006V398.284H30.9491V374.592H7.78925V398.284H0.137634Z" fill="#829EB7"/>
<path d="M62.144 398.284V375.817L45.2695 346.295H54.0142L66.1406 367.796L78.1987 346.295H86.7043L69.8298 375.892V398.284H62.144Z" fill="#829EB7"/>
<path d="M93.3412 398.284V346.295H108.303C113.062 346.295 117.263 347.41 120.907 349.637C124.55 351.841 127.397 354.898 129.447 358.81C131.519 362.721 132.555 367.227 132.555 372.327C132.555 376.115 131.964 379.605 130.779 382.799C129.618 385.968 127.955 388.704 125.792 391.006C123.629 393.308 121.066 395.103 118.106 396.391C115.146 397.653 111.877 398.284 108.303 398.284H93.3412ZM100.993 390.524H107.38C109.953 390.524 112.287 390.115 114.383 389.298C116.501 388.456 118.311 387.243 119.814 385.658C121.339 384.074 122.512 382.167 123.333 379.94C124.152 377.687 124.562 375.149 124.562 372.327C124.562 368.54 123.844 365.284 122.41 362.561C120.998 359.812 119.005 357.708 116.432 356.248C113.859 354.762 110.841 354.019 107.38 354.019H100.993V390.524Z" fill="#829EB7"/>
<path d="M142.044 398.284V346.295H160.114C163.439 346.295 166.309 346.927 168.722 348.189C171.159 349.428 173.038 351.198 174.358 353.499C175.702 355.802 176.374 358.538 176.374 361.707C176.374 364.281 175.861 366.559 174.836 368.54C173.835 370.52 172.423 372.154 170.601 373.441C168.779 374.704 166.672 375.558 164.282 376.003L178.697 398.284H169.439L156.22 377.303H149.696V398.284H142.044ZM149.696 370.396H158.85C161.948 370.396 164.35 369.678 166.057 368.242C167.789 366.806 168.654 364.752 168.654 362.078C168.654 359.329 167.88 357.188 166.331 355.653C164.805 354.118 162.494 353.351 159.397 353.351H149.696V370.396Z" fill="#829EB7"/>
<path d="M181.912 398.284L200.495 346.295H208.795L227.855 398.284H219.213L214.807 385.882H194.55L190.314 398.284H181.912ZM196.532 378.715H212.758L204.491 356.062L196.532 378.715Z" fill="#829EB7"/>
<path d="M253.14 399.399C248.881 399.399 245.317 398.458 242.448 396.576C239.601 394.694 237.449 392.145 235.991 388.926C234.557 385.683 233.84 382.044 233.84 378.008V346.295H241.492V377.934C241.492 382.514 242.538 385.931 244.634 388.184C246.729 390.412 249.564 391.526 253.14 391.526C256.714 391.526 259.55 390.412 261.645 388.184C263.74 385.931 264.788 382.514 264.788 377.934V346.295H272.473V378.008C272.473 382.019 271.744 385.646 270.287 388.889C268.852 392.107 266.701 394.67 263.831 396.576C260.985 398.458 257.42 399.399 253.14 399.399Z" fill="#829EB7"/>
<path d="M284.616 398.284V346.295H292.268V390.634H313.105V398.284H284.616Z" fill="#829EB7"/>
<path d="M321.779 398.284V346.295H329.431V398.284H321.779Z" fill="#829EB7"/>
<path d="M363.721 399.4C358.756 399.4 354.418 398.286 350.706 396.058C346.994 393.83 344.102 390.686 342.03 386.626C339.981 382.541 338.956 377.775 338.956 372.329C338.956 368.368 339.559 364.741 340.766 361.448C341.996 358.131 343.715 355.259 345.924 352.833C348.156 350.407 350.786 348.525 353.815 347.188C356.843 345.851 360.168 345.183 363.789 345.183C367.432 345.183 370.575 345.678 373.217 346.668C375.881 347.658 378.204 349.07 380.185 350.901L376.223 357.697C374.72 356.188 372.966 355.061 370.962 354.318C368.958 353.575 366.749 353.204 364.336 353.204C361.671 353.204 359.268 353.65 357.128 354.541C354.988 355.433 353.154 356.707 351.629 358.366C350.125 360 348.964 361.992 348.145 364.345C347.347 366.671 346.949 369.308 346.949 372.255C346.949 376.265 347.666 379.694 349.101 382.541C350.558 385.388 352.608 387.566 355.249 389.077C357.914 390.562 361.056 391.305 364.677 391.305C367.091 391.305 369.414 390.921 371.646 390.153C373.9 389.362 376.007 388.086 377.965 386.329L381.518 393.347C379.218 395.303 376.588 396.801 373.627 397.84C370.689 398.88 367.387 399.4 363.721 399.4Z" fill="#829EB7"/>
<path d="M405.14 399.4C401.838 399.4 398.604 398.892 395.439 397.877C392.296 396.838 389.643 395.352 387.479 393.421L391.237 387.071C392.376 388.136 393.696 389.052 395.199 389.819C396.725 390.587 398.342 391.18 400.05 391.602C401.758 391.997 403.466 392.196 405.174 392.196C408.293 392.196 410.81 391.552 412.723 390.265C414.659 388.978 415.626 387.096 415.626 384.621C415.626 382.764 414.966 381.191 413.645 379.904C412.347 378.616 409.933 377.428 406.403 376.339L401.485 374.78C396.976 373.368 393.685 371.499 391.613 369.172C389.563 366.845 388.539 363.948 388.539 360.483C388.539 358.18 388.96 356.101 389.802 354.243C390.667 352.387 391.875 350.778 393.423 349.416C394.995 348.055 396.839 347.015 398.956 346.297C401.075 345.579 403.398 345.22 405.926 345.22C409.137 345.22 412.119 345.728 414.875 346.742C417.63 347.757 419.908 349.12 421.707 350.828L417.812 356.992C416.833 356.026 415.684 355.197 414.363 354.504C413.065 353.811 411.664 353.279 410.161 352.907C408.658 352.535 407.132 352.35 405.584 352.35C403.671 352.35 401.974 352.66 400.494 353.279C399.037 353.872 397.898 354.739 397.078 355.878C396.258 357.016 395.849 358.403 395.849 360.037C395.849 361.225 396.122 362.265 396.668 363.156C397.214 364.047 398.148 364.864 399.469 365.608C400.813 366.326 402.657 367.055 405.003 367.798L410.195 369.469C414.613 370.88 417.847 372.725 419.896 375.002C421.946 377.255 422.971 380.189 422.971 383.804C422.971 386.898 422.265 389.621 420.852 391.973C419.464 394.3 417.437 396.12 414.772 397.432C412.108 398.744 408.897 399.4 405.14 399.4Z" fill="#829EB7"/>
<path d="M173.133 289.355V162.478H191.635V212.867H226.506V162.478H245.72V289.355H226.506V231.536H191.635V289.355H173.133Z" fill="#829EB7"/>
<path d="M158.844 295.545V156.907H179.249V211.966H241.007V156.907H261.412V295.545H241.007V232.366H179.249V295.545H158.844Z" fill="#ACC5DA"/>
<path d="M83.7387 102.833H67.6333L63.0414 0.507812H92.8065L83.7387 102.833Z" fill="#C2D6E7" stroke="#C2D6E7"/>
<path d="M64.5906 16.0192H47.6014L52.5107 54.1405C57.7885 59.8949 60.7357 63.9661 67.5144 66.8269L64.5906 16.0192Z" fill="#829EB7"/>
<path d="M56.8759 101.334L69.554 101.411L68.2572 79.0755C62.396 76.9807 58.3462 74.8166 54.1848 72.0275L56.8759 101.334Z" fill="#829EB7"/>
<path d="M104.313 26.6182H89.3274L85.4078 71.4612C90.7989 71.9341 96.5401 70.0588 99.1296 68.9352L104.313 26.6182Z" fill="#829EB7"/>
<path d="M82.6241 101.334H94.2369L97.4124 80.1127C92.4898 81.8784 88.8898 82.1963 84.4274 82.043L82.6241 101.334Z" fill="#829EB7"/>
<path d="M64.5906 16.0192H47.6014L52.5107 54.1405C57.7885 59.8949 60.7357 63.9661 67.5144 66.8269L64.5906 16.0192Z" stroke="#829EB7"/>
<path d="M56.8759 101.334L69.554 101.411L68.2572 79.0755C62.396 76.9807 58.3462 74.8166 54.1848 72.0275L56.8759 101.334Z" stroke="#829EB7"/>
<path d="M104.313 26.6182H89.3274L85.4078 71.4612C90.7989 71.9341 96.5401 70.0588 99.1296 68.9352L104.313 26.6182Z" stroke="#829EB7"/>
<path d="M82.6241 101.334H94.2369L97.4124 80.1127C92.4898 81.8784 88.8898 82.1963 84.4274 82.043L82.6241 101.334Z" stroke="#829EB7"/>
<path d="M113.966 49.2005C109.311 95.776 25.9382 64.7257 44.5029 21.6783C7.03592 70.3713 117.074 112.713 113.966 49.2005Z" fill="#829EB7" stroke="#829EB7"/>
<path d="M63.2476 14.6215H46.3706L50.858 54.6205C54.8131 59.3352 60.538 63.4794 66.1399 66.229L63.2476 14.6215Z" fill="#ACC5DA"/>
<path d="M54.9411 102.833H68.2358L66.8566 78.5388C60.4943 76.0161 58.2799 74.8034 52.8099 71.0946L54.9411 102.833Z" fill="#ACC5DA"/>
<path d="M105.828 25.2069H90.6377L86.7012 71.5401C92.395 71.8094 97.0487 70.4505 99.9087 69.1968L105.828 25.2069Z" fill="#ACC5DA"/>
<path d="M83.9696 102.833H95.1087L98.2504 79.7595C93.7421 81.5923 89.5239 82.0759 85.7819 82.0759L83.9696 102.833Z" fill="#ACC5DA"/>
<path d="M63.2476 14.6215H46.3706L50.858 54.6205C54.8131 59.3352 60.538 63.4794 66.1399 66.229L63.2476 14.6215Z" stroke="#ACC5DA"/>
<path d="M54.9411 102.833H68.2358L66.8566 78.5388C60.4943 76.0161 58.2799 74.8034 52.8099 71.0946L54.9411 102.833Z" stroke="#ACC5DA"/>
<path d="M105.828 25.2069H90.6377L86.7012 71.5401C92.395 71.8094 97.0487 70.4505 99.9087 69.1968L105.828 25.2069Z" stroke="#ACC5DA"/>
<path d="M83.9696 102.833H95.1087L98.2504 79.7595C93.7421 81.5923 89.5239 82.0759 85.7819 82.0759L83.9696 102.833Z" stroke="#ACC5DA"/>
</svg>
