<svg width="517" height="449" viewBox="0 0 517 449" fill="none" xmlns="http://www.w3.org/2000/svg">
<g filter="url(#filter0_b_22_105)">
<path d="M100.708 73.0455V1.53242H111.233V29.9333H143.09V1.53242H153.615V73.0455H143.09V40.456H111.233V73.0455H100.708Z" fill="#ACC5DA"/>
<path d="M186 73.0455V42.1416L162.789 1.53242H174.817L191.498 31.1082L208.084 1.53242H219.784L196.572 42.2438V73.0455H186Z" fill="#ACC5DA"/>
<path d="M228.913 73.0455V1.53242H252.735C257.403 1.53242 261.522 2.41782 265.093 4.18862C268.695 5.92537 271.515 8.44536 273.551 11.7486C275.587 15.0177 276.605 18.951 276.605 23.5482C276.605 28.2817 275.665 32.2831 273.786 35.5522C271.906 38.7873 269.165 41.2562 265.563 42.9589C261.992 44.6276 257.638 45.4619 252.5 45.4619H239.438V73.0455H228.913ZM239.438 35.6544H252.641C256.902 35.6544 260.206 34.6838 262.556 32.7428C264.905 30.7677 266.08 27.7879 266.08 23.8036C266.08 19.8534 264.874 16.8226 262.462 14.7113C260.05 12.5999 256.808 11.5443 252.735 11.5443H239.438V35.6544Z" fill="#ACC5DA"/>
<path d="M288.473 73.0455V1.53242H313.329C317.902 1.53242 321.849 2.4008 325.17 4.13754C328.521 5.84024 331.106 8.27509 332.923 11.4421C334.771 14.6091 335.695 18.3721 335.695 22.7309C335.695 26.2725 334.99 29.4055 333.58 32.1298C332.202 34.8541 330.26 37.1017 327.754 38.8725C325.248 40.6092 322.35 41.7841 319.061 42.397L338.89 73.0455H326.156L307.972 44.1849H298.998V73.0455H288.473ZM298.998 34.6838H311.59C315.851 34.6838 319.155 33.6963 321.505 31.7212C323.885 29.746 325.076 26.9196 325.076 23.2418C325.076 19.4618 324.011 16.5161 321.881 14.4048C319.782 12.2934 316.602 11.2378 312.342 11.2378H298.998V34.6838Z" fill="#ACC5DA"/>
<path d="M380.501 74.5779C375.552 74.5779 370.963 73.6415 366.734 71.7685C362.537 69.8615 358.872 67.2223 355.739 63.851C352.638 60.4796 350.21 56.5294 348.456 52.0002C346.733 47.4711 345.872 42.5673 345.872 37.289C345.872 31.9766 346.733 27.0558 348.456 22.5266C350.21 17.9975 352.638 14.0472 355.739 10.6759C358.872 7.30455 362.537 4.6824 366.734 2.80944C370.963 0.93648 375.552 0 380.501 0C385.419 0 389.977 0.953508 394.175 2.86052C398.372 4.76754 402.037 7.42374 405.17 10.8291C408.302 14.2345 410.73 18.2018 412.453 22.7309C414.207 27.2261 415.084 32.0787 415.084 37.289C415.084 42.5673 414.207 47.4711 412.453 52.0002C410.73 56.5294 408.302 60.4796 405.17 63.851C402.037 67.2223 398.372 69.8615 394.175 71.7685C389.977 73.6415 385.419 74.5779 380.501 74.5779ZM380.501 63.7488C383.822 63.7488 386.907 63.1358 389.758 61.9099C392.64 60.6499 395.146 58.8621 397.276 56.5464C399.406 54.1967 401.066 51.4043 402.256 48.1692C403.478 44.9 404.089 41.2733 404.089 37.289C404.089 31.9425 403.04 27.2942 400.941 23.3439C398.873 19.3596 396.054 16.2777 392.483 14.0983C388.912 11.9188 384.918 10.8291 380.501 10.8291C377.181 10.8291 374.08 11.4591 371.198 12.7191C368.347 13.945 365.841 15.7159 363.68 18.0315C361.55 20.3472 359.874 23.1396 358.652 26.4088C357.462 29.6439 356.867 33.2706 356.867 37.289C356.867 42.6354 357.916 47.3008 360.015 51.2851C362.114 55.2353 364.933 58.3002 368.473 60.4796C372.044 62.6591 376.053 63.7488 380.501 63.7488Z" fill="#ACC5DA"/>
<path d="M0 447.638V384.071H9.35566V409.316H37.6732V384.071H47.0289V447.638H37.6732V418.669H9.35566V447.638H0Z" fill="#829EB7"/>
<path d="M75.8157 447.638V420.168L55.1831 384.071H65.8753L80.7023 410.36L95.4459 384.071H105.846L85.2131 420.259V447.638H75.8157Z" fill="#829EB7"/>
<path d="M113.96 447.638V384.071H132.254C138.073 384.071 143.21 385.433 147.666 388.157C152.121 390.851 155.601 394.59 158.107 399.372C160.641 404.155 161.908 409.664 161.908 415.9C161.908 420.531 161.184 424.799 159.736 428.704C158.316 432.578 156.283 435.923 153.638 438.738C150.993 441.554 147.86 443.748 144.241 445.322C140.621 446.866 136.625 447.638 132.254 447.638H113.96ZM123.316 438.148H131.126C134.272 438.148 137.126 437.649 139.688 436.65C142.278 435.621 144.491 434.137 146.329 432.2C148.195 430.263 149.629 427.932 150.631 425.208C151.633 422.453 152.135 419.35 152.135 415.9C152.135 411.268 151.257 407.288 149.503 403.958C147.777 400.598 145.341 398.025 142.194 396.239C139.048 394.423 135.358 393.515 131.126 393.515H123.316V438.148Z" fill="#829EB7"/>
<path d="M173.51 447.638V384.071H195.604C199.669 384.071 203.178 384.843 206.129 386.386C209.109 387.9 211.406 390.064 213.021 392.879C214.664 395.694 215.485 399.039 215.485 402.914C215.485 406.062 214.858 408.847 213.605 411.268C212.38 413.69 210.654 415.688 208.426 417.262C206.199 418.806 203.623 419.85 200.7 420.395L218.325 447.638H207.006L190.843 421.984H182.865V447.638H173.51ZM182.865 413.539H194.059C197.846 413.539 200.783 412.661 202.871 410.905C204.988 409.149 206.046 406.637 206.046 403.368C206.046 400.008 205.099 397.389 203.206 395.513C201.34 393.636 198.514 392.698 194.727 392.698H182.865V413.539Z" fill="#829EB7"/>
<path d="M222.256 447.638L244.977 384.071H255.126L278.432 447.638H267.865L262.477 432.473H237.71L232.531 447.638H222.256ZM240.132 423.709H259.971L249.864 396.012L240.132 423.709Z" fill="#829EB7"/>
<path d="M309.347 449C304.14 449 299.782 447.85 296.274 445.549C292.794 443.249 290.162 440.131 288.38 436.196C286.626 432.23 285.749 427.781 285.749 422.847V384.071H295.105V422.756C295.105 428.356 296.385 432.533 298.947 435.288C301.509 438.012 304.975 439.374 309.347 439.374C313.718 439.374 317.185 438.012 319.747 435.288C322.308 432.533 323.589 428.356 323.589 422.756V384.071H332.987V422.847C332.987 427.75 332.096 432.185 330.314 436.15C328.559 440.085 325.928 443.218 322.42 445.549C318.939 447.85 314.582 449 309.347 449Z" fill="#829EB7"/>
<path d="M347.835 447.638V384.071H357.191V438.284H382.668V447.638H347.835Z" fill="#829EB7"/>
<path d="M393.272 447.638V384.071H402.628V447.638H393.272Z" fill="#829EB7"/>
<path d="M444.555 449C438.485 449 433.181 447.638 428.642 444.914C424.103 442.189 420.567 438.345 418.033 433.381C415.527 428.386 414.274 422.559 414.274 415.9C414.274 411.056 415.012 406.622 416.488 402.596C417.992 398.54 420.094 395.028 422.795 392.062C425.523 389.095 428.739 386.795 432.443 385.16C436.146 383.526 440.211 382.708 444.638 382.708C449.094 382.708 452.936 383.314 456.166 384.525C459.424 385.736 462.264 387.461 464.686 389.701L459.841 398.01C458.004 396.164 455.86 394.786 453.409 393.878C450.959 392.97 448.258 392.516 445.307 392.516C442.049 392.516 439.111 393.061 436.494 394.151C433.877 395.24 431.635 396.799 429.77 398.827C427.932 400.825 426.512 403.262 425.51 406.138C424.535 408.983 424.048 412.207 424.048 415.809C424.048 420.713 424.925 424.905 426.679 428.386C428.461 431.867 430.967 434.531 434.197 436.377C437.455 438.194 441.297 439.102 445.724 439.102C448.676 439.102 451.516 438.633 454.245 437.694C457.001 436.725 459.577 435.167 461.972 433.017L466.315 441.599C463.503 443.99 460.287 445.822 456.667 447.093C453.075 448.364 449.038 449 444.555 449Z" fill="#829EB7"/>
<path d="M495.198 449C491.161 449 487.207 448.379 483.336 447.138C479.494 445.867 476.25 444.051 473.605 441.69L478.199 433.925C479.591 435.227 481.206 436.347 483.044 437.285C484.909 438.224 486.886 438.95 488.975 439.465C491.063 439.949 493.151 440.191 495.24 440.191C499.054 440.191 502.131 439.404 504.47 437.83C506.837 436.256 508.02 433.956 508.02 430.929C508.02 428.659 507.213 426.736 505.598 425.162C504.011 423.588 501.059 422.135 496.743 420.803L490.729 418.896C485.216 417.171 481.192 414.886 478.658 412.04C476.153 409.195 474.9 405.653 474.9 401.415C474.9 398.6 475.415 396.058 476.445 393.787C477.503 391.517 478.979 389.55 480.872 387.885C482.793 386.22 485.049 384.948 487.638 384.071C490.228 383.193 493.068 382.754 496.159 382.754C500.085 382.754 503.732 383.374 507.101 384.616C510.47 385.857 513.255 387.521 515.455 389.61L510.693 397.147C509.496 395.967 508.09 394.953 506.475 394.105C504.888 393.258 503.175 392.607 501.338 392.153C499.5 391.699 497.634 391.472 495.741 391.472C493.402 391.472 491.328 391.85 489.518 392.607C487.736 393.333 486.343 394.393 485.341 395.785C484.339 397.178 483.838 398.873 483.838 400.871C483.838 402.324 484.172 403.595 484.84 404.685C485.508 405.774 486.65 406.773 488.265 407.681C489.908 408.559 492.163 409.452 495.031 410.36L501.379 412.403C506.781 414.129 510.735 416.384 513.241 419.169C515.747 421.923 517 425.51 517 429.93C517 433.714 516.137 437.043 514.41 439.919C512.712 442.764 510.234 444.989 506.976 446.594C503.718 448.198 499.792 449 495.198 449Z" fill="#829EB7"/>
<path d="M211.522 314.449V159.315H234.146V220.926H276.782V159.315H300.276V314.449H276.782V243.753H234.146V314.449H211.522Z" fill="#829EB7"/>
<path d="M194.052 322.017V152.504H219V219.825H294.514V152.504H319.462V322.017H294.514V244.768H219V322.017H194.052Z" fill="#ACC5DA"/>
</g>
<defs>
<filter id="filter0_b_22_105" x="-4" y="-4" width="525" height="457" filterUnits="userSpaceOnUse" color-interpolation-filters="sRGB">
<feFlood flood-opacity="0" result="BackgroundImageFix"/>
<feGaussianBlur in="BackgroundImageFix" stdDeviation="2"/>
<feComposite in2="SourceAlpha" operator="in" result="effect1_backgroundBlur_22_105"/>
<feBlend mode="normal" in="SourceGraphic" in2="effect1_backgroundBlur_22_105" result="shape"/>
</filter>
</defs>
</svg>
