<svg width="501" height="473" viewBox="0 0 501 473" fill="none" xmlns="http://www.w3.org/2000/svg">
<g filter="url(#filter0_b_560_9)">
<path d="M156.902 103.742V34.5802H167.081V62.0472H197.891V34.5802H208.07V103.742H197.891V72.2238H167.081V103.742H156.902Z" fill="#ACC5DA"/>
<path d="M239.39 103.742V73.8541L216.942 34.5802H228.575L244.707 63.1834L260.748 34.5802H272.063L249.615 73.9529V103.742H239.39Z" fill="#ACC5DA"/>
<path d="M280.892 103.742V34.5802H303.931C308.445 34.5802 312.429 35.4365 315.882 37.149C319.366 38.8287 322.093 41.2658 324.062 44.4604C326.031 47.6221 327.015 51.426 327.015 55.8721C327.015 60.4499 326.107 64.3197 324.289 67.4813C322.471 70.6101 319.82 72.9978 316.337 74.6445C312.883 76.2583 308.672 77.0652 303.704 77.0652H291.071V103.742H280.892ZM291.071 67.5801H303.84C307.96 67.5801 311.156 66.6415 313.428 64.7643C315.7 62.8541 316.836 59.9724 316.836 56.1191C316.836 52.2987 315.67 49.3676 313.337 47.3257C311.005 45.2837 307.869 44.2628 303.931 44.2628H291.071V67.5801Z" fill="#ACC5DA"/>
<path d="M338.493 103.742V34.5802H362.532C366.955 34.5802 370.772 35.42 373.983 37.0996C377.225 38.7463 379.724 41.1011 381.481 44.164C383.269 47.2269 384.162 50.8661 384.162 55.0816C384.162 58.5068 383.481 61.5367 382.118 64.1715C380.785 66.8062 378.906 68.9798 376.483 70.6924C374.059 72.372 371.257 73.5083 368.076 74.1011L387.253 103.742H374.938L357.352 75.8301H348.672V103.742H338.493ZM348.672 66.6415H360.851C364.971 66.6415 368.167 65.6864 370.439 63.7762C372.741 61.8661 373.893 59.1325 373.893 55.5757C373.893 51.92 372.863 49.0712 370.802 47.0293C368.773 44.9873 365.698 43.9664 361.578 43.9664H348.672V66.6415Z" fill="#ACC5DA"/>
<path d="M427.496 105.224C422.709 105.224 418.271 104.318 414.181 102.507C410.122 100.662 406.577 98.11 403.548 94.8496C400.549 91.5891 398.201 87.7687 396.504 83.3885C394.838 79.0083 394.005 74.2658 394.005 69.161C394.005 64.0233 394.838 59.2643 396.504 54.884C398.201 50.5038 400.549 46.6834 403.548 43.423C406.577 40.1625 410.122 37.6266 414.181 35.8152C418.271 34.0038 422.709 33.0981 427.496 33.0981C432.252 33.0981 436.66 34.0203 440.719 35.8646C444.779 37.7089 448.323 40.2778 451.353 43.5712C454.382 46.8646 456.73 50.7014 458.396 55.0816C460.093 59.4289 460.941 64.1221 460.941 69.161C460.941 74.2658 460.093 79.0083 458.396 83.3885C456.73 87.7687 454.382 91.5891 451.353 94.8496C448.323 98.11 444.779 100.662 440.719 102.507C436.66 104.318 432.252 105.224 427.496 105.224ZM427.496 94.7508C430.707 94.7508 433.691 94.158 436.448 92.9723C439.235 91.7538 441.659 90.0247 443.719 87.7852C445.779 85.5127 447.384 82.8122 448.535 79.6834C449.717 76.5217 450.308 73.0143 450.308 69.161C450.308 63.9903 449.293 59.4948 447.263 55.6745C445.264 51.8212 442.537 48.8406 439.083 46.7329C435.63 44.6251 431.767 43.5712 427.496 43.5712C424.285 43.5712 421.285 44.1805 418.498 45.399C415.741 46.5846 413.318 48.2972 411.228 50.5367C409.167 52.7763 407.547 55.4769 406.365 58.6385C405.214 61.7673 404.638 65.2747 404.638 69.161C404.638 74.3316 405.653 78.8436 407.683 82.6969C409.713 86.5172 412.439 89.4813 415.863 91.5891C419.316 93.6969 423.194 94.7508 427.496 94.7508Z" fill="#ACC5DA"/>
<path d="M0.16272 470.972V409.495H9.21075V433.91H36.5972V409.495H45.6452V470.972H36.5972V442.956H9.21075V470.972H0.16272Z" fill="#829EB7"/>
<path d="M73.4854 470.972V444.405L53.5313 409.495H63.8719L78.2114 434.92L92.4701 409.495H102.528L82.5739 444.493V470.972H73.4854Z" fill="#829EB7"/>
<path d="M110.376 470.972V409.495H128.068C133.696 409.495 138.664 410.813 142.973 413.447C147.281 416.053 150.647 419.668 153.071 424.294C155.521 428.919 156.747 434.247 156.747 440.278C156.747 444.757 156.047 448.884 154.646 452.661C153.273 456.408 151.307 459.643 148.749 462.365C146.191 465.088 143.161 467.21 139.66 468.733C136.16 470.226 132.295 470.972 128.068 470.972H110.376ZM119.424 461.795H126.977C130.02 461.795 132.78 461.312 135.258 460.346C137.762 459.35 139.903 457.916 141.68 456.042C143.484 454.169 144.871 451.914 145.841 449.28C146.81 446.616 147.295 443.615 147.295 440.278C147.295 435.799 146.446 431.949 144.75 428.729C143.08 425.479 140.724 422.991 137.681 421.264C134.638 419.507 131.07 418.629 126.977 418.629H119.424V461.795Z" fill="#829EB7"/>
<path d="M167.967 470.972V409.495H189.335C193.267 409.495 196.66 410.242 199.514 411.735C202.395 413.199 204.617 415.292 206.179 418.014C207.768 420.737 208.562 423.972 208.562 427.719C208.562 430.763 207.956 433.457 206.744 435.799C205.56 438.141 203.89 440.073 201.736 441.595C199.581 443.088 197.09 444.098 194.263 444.625L211.309 470.972H200.362L184.73 446.162H177.015V470.972H167.967ZM177.015 437.994H187.84C191.503 437.994 194.344 437.145 196.363 435.447C198.41 433.749 199.433 431.32 199.433 428.158C199.433 424.908 198.518 422.376 196.687 420.561C194.882 418.746 192.149 417.839 188.487 417.839H177.015V437.994Z" fill="#829EB7"/>
<path d="M215.111 470.972L237.085 409.495H246.9L269.439 470.972H259.22L254.009 456.306H230.056L225.047 470.972H215.111ZM232.399 447.831H251.586L241.811 421.044L232.399 447.831Z" fill="#829EB7"/>
<path d="M299.338 472.29C294.302 472.29 290.088 471.177 286.695 468.952C283.329 466.727 280.784 463.712 279.06 459.906C277.364 456.071 276.516 451.768 276.516 446.996V409.495H285.564V446.908C285.564 452.324 286.802 456.364 289.28 459.028C291.757 461.663 295.11 462.98 299.338 462.98C303.565 462.98 306.918 461.663 309.396 459.028C311.873 456.364 313.112 452.324 313.112 446.908V409.495H322.2V446.996C322.2 451.739 321.338 456.027 319.615 459.862C317.918 463.668 315.374 466.698 311.981 468.952C308.615 471.177 304.4 472.29 299.338 472.29Z" fill="#829EB7"/>
<path d="M336.56 470.972V409.495H345.608V461.926H370.248V470.972H336.56Z" fill="#829EB7"/>
<path d="M380.504 470.972V409.495H389.552V470.972H380.504Z" fill="#829EB7"/>
<path d="M430.1 472.29C424.229 472.29 419.099 470.972 414.71 468.338C410.321 465.703 406.901 461.985 404.45 457.184C402.027 452.354 400.815 446.718 400.815 440.278C400.815 435.594 401.529 431.305 402.956 427.411C404.41 423.489 406.443 420.093 409.055 417.224C411.694 414.355 414.804 412.13 418.386 410.549C421.967 408.968 425.899 408.178 430.181 408.178C434.489 408.178 438.205 408.763 441.329 409.934C444.48 411.105 447.226 412.774 449.569 414.94L444.884 422.976C443.106 421.191 441.033 419.859 438.663 418.98C436.293 418.102 433.681 417.663 430.827 417.663C427.676 417.663 424.835 418.19 422.304 419.244C419.773 420.298 417.605 421.805 415.801 423.767C414.023 425.699 412.65 428.055 411.681 430.837C410.738 433.588 410.267 436.706 410.267 440.19C410.267 444.932 411.115 448.987 412.812 452.354C414.535 455.72 416.959 458.296 420.082 460.082C423.233 461.839 426.949 462.717 431.231 462.717C434.085 462.717 436.832 462.263 439.471 461.355C442.137 460.419 444.628 458.911 446.944 456.833L451.145 465.132C448.425 467.445 445.315 469.216 441.814 470.445C438.34 471.675 434.435 472.29 430.1 472.29Z" fill="#829EB7"/>
<path d="M479.078 472.29C475.173 472.29 471.349 471.689 467.606 470.489C463.89 469.26 460.753 467.503 458.194 465.22L462.638 457.711C463.984 458.97 465.546 460.053 467.323 460.96C469.127 461.868 471.039 462.57 473.059 463.068C475.079 463.536 477.098 463.771 479.118 463.771C482.807 463.771 485.783 463.009 488.045 461.487C490.334 459.965 491.478 457.74 491.478 454.813C491.478 452.617 490.697 450.758 489.135 449.236C487.6 447.713 484.746 446.308 480.572 445.02L474.756 443.176C469.424 441.507 465.532 439.297 463.082 436.545C460.658 433.793 459.447 430.368 459.447 426.27C459.447 423.547 459.945 421.088 460.941 418.892C461.964 416.697 463.392 414.794 465.223 413.184C467.081 411.574 469.262 410.344 471.766 409.495C474.271 408.646 477.018 408.222 480.007 408.222C483.804 408.222 487.331 408.822 490.59 410.022C493.848 411.222 496.541 412.833 498.668 414.853L494.063 422.142C492.905 421 491.546 420.02 489.984 419.2C488.449 418.38 486.793 417.751 485.015 417.312C483.238 416.872 481.434 416.653 479.603 416.653C477.341 416.653 475.334 417.019 473.584 417.751C471.861 418.453 470.514 419.478 469.545 420.825C468.575 422.171 468.091 423.811 468.091 425.743C468.091 427.148 468.414 428.378 469.06 429.431C469.706 430.485 470.81 431.451 472.372 432.33C473.961 433.179 476.142 434.042 478.916 434.92L485.056 436.896C490.28 438.565 494.104 440.746 496.527 443.439C498.951 446.103 500.163 449.572 500.163 453.847C500.163 457.506 499.328 460.726 497.658 463.507C496.016 466.259 493.619 468.411 490.468 469.962C487.318 471.514 483.521 472.29 479.078 472.29Z" fill="#829EB7"/>
<path d="M204.73 342.163V192.13H226.609V251.715H267.844V192.13H290.565V342.163H267.844V273.791H226.609V342.163H204.73Z" fill="#829EB7"/>
<path d="M187.834 349.482V185.543H211.962V250.65H284.992V185.543H309.12V349.482H284.992V274.773H211.962V349.482H187.834Z" fill="#ACC5DA"/>
</g>
<path d="M99.0214 121.6H79.9767L74.5468 0.600464H109.744L99.0214 121.6Z" fill="#C2D6E7" stroke="#C2D6E7"/>
<path d="M76.3784 18.9427H56.2887L62.0939 64.0211C68.3349 70.8257 71.8199 75.6398 79.8357 79.0228L76.3784 18.9427Z" fill="#829EB7"/>
<path d="M67.2559 119.827L82.2478 119.918L80.7143 93.5068C73.7834 91.0297 68.9945 88.4706 64.0736 85.1725L67.2559 119.827Z" fill="#829EB7"/>
<path d="M123.351 31.476H105.63L100.995 84.5028C107.37 85.062 114.159 82.8444 117.221 81.5158L123.351 31.476Z" fill="#829EB7"/>
<path d="M97.7029 119.827H111.435L115.19 94.7331C109.369 96.8211 105.112 97.197 99.8353 97.0157L97.7029 119.827Z" fill="#829EB7"/>
<path d="M76.3784 18.9427H56.2887L62.0939 64.0211C68.3349 70.8257 71.8199 75.6398 79.8357 79.0228L76.3784 18.9427Z" stroke="#829EB7"/>
<path d="M67.2559 119.827L82.2478 119.918L80.7143 93.5068C73.7834 91.0297 68.9945 88.4706 64.0736 85.1725L67.2559 119.827Z" stroke="#829EB7"/>
<path d="M123.351 31.476H105.63L100.995 84.5028C107.37 85.062 114.159 82.8444 117.221 81.5158L123.351 31.476Z" stroke="#829EB7"/>
<path d="M97.7029 119.827H111.435L115.19 94.7331C109.369 96.8211 105.112 97.197 99.8353 97.0157L97.7029 119.827Z" stroke="#829EB7"/>
<path d="M134.765 58.1795C129.26 113.255 30.672 76.5381 52.6247 25.6346C8.32011 83.214 138.44 133.283 134.765 58.1795Z" fill="#829EB7" stroke="#829EB7"/>
<path d="M74.7904 17.2899H54.8334L60.1397 64.5889C64.8167 70.164 71.5863 75.0645 78.2106 78.3159L74.7904 17.2899Z" fill="#ACC5DA"/>
<path d="M64.968 121.6H80.6889L79.058 92.872C71.5346 89.8889 68.9161 88.4549 62.4478 84.0692L64.968 121.6Z" fill="#ACC5DA"/>
<path d="M125.141 29.8071H107.179L102.524 84.5961C109.257 84.9146 114.76 83.3076 118.142 81.8252L125.141 29.8071Z" fill="#ACC5DA"/>
<path d="M99.294 121.6H112.466L116.181 94.3158C110.85 96.4831 105.862 97.0549 101.437 97.0549L99.294 121.6Z" fill="#ACC5DA"/>
<path d="M74.7904 17.2899H54.8334L60.1397 64.5889C64.8167 70.164 71.5863 75.0645 78.2106 78.3159L74.7904 17.2899Z" stroke="#ACC5DA"/>
<path d="M64.968 121.6H80.6889L79.058 92.872C71.5346 89.8889 68.9161 88.4549 62.4478 84.0692L64.968 121.6Z" stroke="#ACC5DA"/>
<path d="M125.141 29.8071H107.179L102.524 84.5961C109.257 84.9146 114.76 83.3076 118.142 81.8252L125.141 29.8071Z" stroke="#ACC5DA"/>
<path d="M99.294 121.6H112.466L116.181 94.3158C110.85 96.4831 105.862 97.0549 101.437 97.0549L99.294 121.6Z" stroke="#ACC5DA"/>
<defs>
<filter id="filter0_b_560_9" x="-3.83728" y="29.0981" width="508" height="447.191" filterUnits="userSpaceOnUse" color-interpolation-filters="sRGB">
<feFlood flood-opacity="0" result="BackgroundImageFix"/>
<feGaussianBlur in="BackgroundImageFix" stdDeviation="2"/>
<feComposite in2="SourceAlpha" operator="in" result="effect1_backgroundBlur_560_9"/>
<feBlend mode="normal" in="SourceGraphic" in2="effect1_backgroundBlur_560_9" result="shape"/>
</filter>
</defs>
</svg>
