<svg width="80" height="80" viewBox="0 0 80 80" fill="none" xmlns="http://www.w3.org/2000/svg">
<path d="M13.3333 30.0002C12.3889 30.0002 11.5978 29.6802 10.96 29.0402C10.3222 28.4002 10.0022 27.6091 9.99998 26.6668C9.99776 25.7246 10.3178 24.9335 10.96 24.2935C11.6022 23.6535 12.3933 23.3335 13.3333 23.3335H23.3333C25.1666 23.3335 26.7366 23.9868 28.0433 25.2935C29.35 26.6002 30.0022 28.1691 30 30.0002H13.3333ZM20 60.0002C22.7778 60.0002 25.1389 59.0279 27.0833 57.0835C29.0278 55.1391 30 52.7779 30 50.0002C30 47.2224 29.0278 44.8613 27.0833 42.9168C25.1389 40.9724 22.7778 40.0002 20 40.0002C17.2222 40.0002 14.8611 40.9724 12.9166 42.9168C10.9722 44.8613 9.99998 47.2224 9.99998 50.0002C9.99998 52.7779 10.9722 55.1391 12.9166 57.0835C14.8611 59.0279 17.2222 60.0002 20 60.0002ZM65 60.0002C66.3889 60.0002 67.57 59.5146 68.5433 58.5435C69.5166 57.5724 70.0022 56.3913 70 55.0002C69.9978 53.6091 69.5122 52.4291 68.5433 51.4602C67.5744 50.4913 66.3933 50.0046 65 50.0002C63.6066 49.9957 62.4266 50.4824 61.46 51.4602C60.4933 52.4379 60.0066 53.6179 60 55.0002C59.9933 56.3824 60.48 57.5635 61.46 58.5435C62.44 59.5235 63.62 60.0091 65 60.0002ZM20 55.0002C18.6111 55.0002 17.4311 54.5146 16.46 53.5435C15.4889 52.5724 15.0022 51.3913 15 50.0002C14.9978 48.6091 15.4844 47.4291 16.46 46.4602C17.4355 45.4913 18.6155 45.0046 20 45.0002C21.3844 44.9957 22.5655 45.4824 23.5433 46.4602C24.5211 47.4379 25.0066 48.6179 25 50.0002C24.9933 51.3824 24.5078 52.5635 23.5433 53.5435C22.5789 54.5235 21.3978 55.0091 20 55.0002ZM66.6666 43.4168C68.1111 43.6946 69.3055 44.0702 70.25 44.5435C71.1944 45.0168 72.2222 45.7802 73.3333 46.8335V26.6668C73.3333 24.8335 72.6811 23.2646 71.3766 21.9602C70.0722 20.6557 68.5022 20.0024 66.6666 20.0002H45.6667L42.1667 16.3335L46.8333 11.6668L44.5 9.3335L32.6667 21.1668L35.1667 23.5002L39.8333 18.8335L43.3333 22.3335V30.0002C43.3333 31.8335 42.6811 33.4035 41.3767 34.7102C40.0722 36.0168 38.5022 36.6691 36.6667 36.6668H29.9167C31.1944 37.6113 32.2222 38.5835 33 39.5835C33.7778 40.5835 34.5555 41.8335 35.3333 43.3335H36.6667C40.3333 43.3335 43.4722 42.0279 46.0833 39.4168C48.6944 36.8057 50 33.6668 50 30.0002V26.6668H66.6666V43.4168ZM53.4167 53.3335C53.75 51.8335 54.1533 50.6246 54.6267 49.7068C55.1 48.7891 55.8355 47.7757 56.8333 46.6668H36.3333C36.5555 47.9446 36.6667 49.0557 36.6667 50.0002C36.6667 50.9446 36.5555 52.0557 36.3333 53.3335H53.4167ZM65 66.6668C61.7778 66.6668 59.0278 65.5279 56.75 63.2502C54.4722 60.9724 53.3333 58.2224 53.3333 55.0002C53.3333 51.7779 54.4722 49.0279 56.75 46.7502C59.0278 44.4724 61.7778 43.3335 65 43.3335C68.2222 43.3335 70.9722 44.4724 73.25 46.7502C75.5278 49.0279 76.6666 51.7779 76.6666 55.0002C76.6666 58.2224 75.5278 60.9724 73.25 63.2502C70.9722 65.5279 68.2222 66.6668 65 66.6668ZM20 66.6668C15.3889 66.6668 11.4589 65.0413 8.20998 61.7902C4.96109 58.5391 3.33554 54.6091 3.33332 50.0002C3.33109 45.3913 4.95665 41.4613 8.20998 38.2102C11.4633 34.9591 15.3933 33.3335 20 33.3335C24.6066 33.3335 28.5378 34.9591 31.7933 38.2102C35.0489 41.4613 36.6733 45.3913 36.6667 50.0002C36.66 54.6091 35.0344 58.5402 31.79 61.7935C28.5455 65.0468 24.6155 66.6713 20 66.6668Z" fill="#49637A"/>
</svg>
