<svg width="74" height="51" viewBox="0 0 74 51" fill="none" xmlns="http://www.w3.org/2000/svg">
<path d="M0 38.25V31.875C0 30.9719 0.322909 30.2154 0.968727 29.6055C1.61455 28.9956 2.41285 28.6896 3.36364 28.6875H27.5818L6.72727 13.0688V19.125C6.72727 20.0281 6.40436 20.7857 5.75854 21.3977C5.11273 22.0097 4.31442 22.3146 3.36364 22.3125C2.41285 22.3104 1.61455 22.0044 0.968727 21.3945C0.322909 20.7846 0 20.0281 0 19.125V6.85313C0 5.63125 0.547152 4.71538 1.64145 4.1055C2.73576 3.49563 3.84239 3.48181 4.96136 4.06406L40.3636 22.4719V3.1875C40.3636 2.28438 40.6865 1.52788 41.3324 0.918C41.9782 0.308125 42.7765 0.002125 43.7273 0H54.0705C55.0795 0 56.0326 0.199751 56.9295 0.599251C57.8265 0.998751 58.5833 1.56931 59.2 2.31094L72.4023 17.3719C72.9068 17.9562 73.2992 18.5938 73.5795 19.2844C73.8598 19.975 74 20.6922 74 21.4359V38.25C74 39.1531 73.6782 39.9107 73.0346 40.5227C72.3911 41.1347 71.5916 41.4396 70.6364 41.4375H65.5909C65.5909 44.0937 64.6098 46.3516 62.6477 48.2109C60.6856 50.0703 58.303 51 55.5 51C52.697 51 50.3144 50.0703 48.3523 48.2109C46.3902 46.3516 45.4091 44.0937 45.4091 41.4375H26.9091C26.9091 44.0937 25.928 46.3516 23.9659 48.2109C22.0038 50.0703 19.6212 51 16.8182 51C14.0152 51 11.6326 50.0703 9.67045 48.2109C7.70833 46.3516 6.72727 44.0937 6.72727 41.4375H3.36364C2.41061 41.4375 1.6123 41.1315 0.968727 40.5195C0.325151 39.9075 0.00224242 39.151 0 38.25ZM16.8182 46.2188C18.2758 46.2188 19.4811 45.7672 20.4341 44.8641C21.3871 43.9609 21.8636 42.8188 21.8636 41.4375C21.8636 40.0562 21.3871 38.9141 20.4341 38.0109C19.4811 37.1078 18.2758 36.6562 16.8182 36.6562C15.3606 36.6562 14.1553 37.1078 13.2023 38.0109C12.2492 38.9141 11.7727 40.0562 11.7727 41.4375C11.7727 42.8188 12.2492 43.9609 13.2023 44.8641C14.1553 45.7672 15.3606 46.2188 16.8182 46.2188ZM55.5 46.2188C56.9576 46.2188 58.1629 45.7672 59.1159 44.8641C60.0689 43.9609 60.5455 42.8188 60.5455 41.4375C60.5455 40.0562 60.0689 38.9141 59.1159 38.0109C58.1629 37.1078 56.9576 36.6562 55.5 36.6562C54.0424 36.6562 52.8371 37.1078 51.8841 38.0109C50.9311 38.9141 50.4545 40.0562 50.4545 41.4375C50.4545 42.8188 50.9311 43.9609 51.8841 44.8641C52.8371 45.7672 54.0424 46.2188 55.5 46.2188ZM47.0909 19.125H65.2545L53.9864 6.375H47.0909V19.125Z" fill="#49637A"/>
</svg>
