<svg width="38" height="38" viewBox="0 0 38 38" fill="none" xmlns="http://www.w3.org/2000/svg">
<rect width="37.39" height="37.39" fill="#829EB7"/>
<path d="M26.9244 18.6899C26.9244 14.1411 23.2388 10.4556 18.69 10.4556C14.1412 10.4556 10.4556 14.1411 10.4556 18.6899C10.4556 22.7998 13.4668 26.2065 17.4034 26.8247V21.0703H15.3116V18.6899H17.4034V16.8757C17.4034 14.8121 18.6319 13.6723 20.5135 13.6723C21.4147 13.6723 22.357 13.833 22.357 13.833V15.8584H21.3184C20.2957 15.8584 19.9766 16.4932 19.9766 17.1443V18.6899H22.2603L21.8951 21.0703H19.9766V26.8247C23.9132 26.2065 26.9244 22.7998 26.9244 18.6899Z" fill="#2E475C"/>
</svg>
