<svg width="38" height="38" viewBox="0 0 38 38" fill="none" xmlns="http://www.w3.org/2000/svg">
<rect width="37.39" height="37.39" fill="#829EB7"/>
<path d="M25.065 11.2524H12.3117C11.7273 11.2524 11.2525 11.7339 11.2525 12.3249V25.055C11.2525 25.646 11.7273 26.1274 12.3117 26.1274H25.065C25.6494 26.1274 26.1275 25.646 26.1275 25.055V12.3249C26.1275 11.7339 25.6494 11.2524 25.065 11.2524ZM15.7482 24.0024H13.5435V16.9036H15.7515V24.0024H15.7482ZM14.6459 15.9341C13.9386 15.9341 13.3675 15.3597 13.3675 14.6558C13.3675 13.9519 13.9386 13.3774 14.6459 13.3774C15.3498 13.3774 15.9242 13.9519 15.9242 14.6558C15.9242 15.363 15.3531 15.9341 14.6459 15.9341ZM24.0125 24.0024H21.8078V20.5493C21.8078 19.7259 21.7912 18.6667 20.6623 18.6667C19.5134 18.6667 19.3375 19.5632 19.3375 20.4896V24.0024H17.1328V16.9036H19.2478V17.8731H19.2777C19.5732 17.3153 20.2937 16.7276 21.3662 16.7276C23.5974 16.7276 24.0125 18.1985 24.0125 20.111V24.0024Z" fill="#2E475C"/>
</svg>
