<svg width="28" height="28" viewBox="0 0 28 28" fill="none" xmlns="http://www.w3.org/2000/svg">
<path d="M23.1925 20.2081C21.6704 21.5254 18.4876 24.2801 16.2974 26.1758C15.0282 27.2744 12.9725 27.2749 11.7032 26.1763C9.55132 24.3137 6.43009 21.6123 4.80762 20.2081C-0.269208 15.814 -0.269208 8.68968 4.80762 4.29558C9.88444 -0.0985277 18.1157 -0.0985277 23.1925 4.29558C28.2692 8.68968 28.2692 15.814 23.1925 20.2081Z" stroke="#829EB7" stroke-width="2" stroke-linecap="round" stroke-linejoin="round"/>
<path d="M19 14C19 16.7615 16.7615 19 14 19C11.2385 19 9 16.7615 9 14C9 11.2386 11.2385 9 14 9C16.7615 9 19 11.2386 19 14Z" stroke="#829EB7" stroke-width="2" stroke-linecap="round" stroke-linejoin="round"/>
</svg>
