<svg width="80" height="80" viewBox="0 0 80 80" fill="none" xmlns="http://www.w3.org/2000/svg">
<path fill-rule="evenodd" clip-rule="evenodd" d="M10.8034 47.7265C9.51668 38.7898 13.1534 30.2832 18.8734 23.5965L18.7134 23.4265C18.1062 22.7978 17.7702 21.9558 17.7778 21.0818C17.7854 20.2078 18.1359 19.3718 18.754 18.7538C19.372 18.1357 20.208 17.7852 21.082 17.7776C21.956 17.77 22.798 18.106 23.4267 18.7132L23.5934 18.8732C30.2834 13.1532 38.79 9.51649 47.7267 10.8065C48.3478 10.932 48.9202 11.2319 49.377 11.671C49.8337 12.1102 50.1558 12.6705 50.3055 13.2862C50.4553 13.9018 50.4264 14.5475 50.2223 15.1473C50.0183 15.7472 49.6475 16.2765 49.1534 16.6732C46.0867 19.2398 43.0534 21.8398 40.19 24.6298C38.4685 26.2873 36.8331 28.0318 35.29 29.8565L62.3167 55.2498C62.642 55.5556 62.9027 55.9237 63.083 56.3322C63.2634 56.7406 63.3599 57.1812 63.3667 57.6276C63.3736 58.0741 63.2906 58.5174 63.1228 58.9312C62.9551 59.345 62.7059 59.7209 62.39 60.0365L60.0334 62.3932C59.7175 62.7088 59.3415 62.9577 58.9275 63.1252C58.5136 63.2927 58.0703 63.3754 57.6238 63.3682C57.1773 63.3611 56.7368 63.2643 56.3285 63.0836C55.9202 62.9029 55.5523 62.6421 55.2467 62.3165L29.8567 35.2898C28.0357 36.837 26.2914 38.4723 24.63 40.1898C21.7467 43.1498 19.07 46.2898 16.4134 49.4498C15.9847 49.8724 15.4497 50.171 14.865 50.3139C14.2804 50.4569 13.668 50.4389 13.0927 50.2618C12.5175 50.0848 12.0009 49.7553 11.5978 49.3083C11.1947 48.8613 10.9202 48.3169 10.8034 47.7265ZM36.8134 18.6332L35.5367 19.8565C34.1034 21.252 32.7978 22.6032 31.62 23.9098C30.41 25.2798 29.21 26.6632 28.1767 28.1765C26.6834 29.1698 25.6234 30.0765 23.91 31.6198C22.5235 32.8883 21.1719 34.1943 19.8567 35.5365L18.6334 36.8132C20.24 32.6532 22.7067 29.0098 25.8567 25.8565C28.9644 22.71 32.6968 20.2494 36.8134 18.6332Z" fill="#49637A"/>
</svg>
