<svg width="28" height="25" viewBox="0 0 28 25" fill="none" xmlns="http://www.w3.org/2000/svg">
<path d="M1 3.51047C1 2.12397 2.2934 1 3.88889 1H8.62557C9.2473 1 9.79928 1.34573 9.99588 1.85829L12.1593 7.4986C12.3867 8.09121 12.078 8.7389 11.4351 9.01826L8.17457 10.435C9.76669 13.5036 12.6116 15.9759 16.1428 17.3595L17.773 14.526C18.0946 13.9673 18.8399 13.6991 19.5218 13.8966L26.0123 15.7767C26.6022 15.9476 27 16.4272 27 16.9676V21.0837C27 22.4703 25.7066 23.5942 24.1111 23.5942H22.6667C10.7005 23.5942 1 15.1644 1 4.7657V3.51047Z" stroke="#829EB7" stroke-width="2" stroke-linecap="round" stroke-linejoin="round"/>
</svg>
