<svg width="80" height="80" viewBox="0 0 80 80" fill="none" xmlns="http://www.w3.org/2000/svg">
<path d="M26.6666 63.3332V64.9998C26.6666 66.3887 26.1811 67.5698 25.21 68.5432C24.2389 69.5165 23.0578 70.0021 21.6666 69.9998C20.2755 69.9976 19.0955 69.5121 18.1266 68.5432C17.1578 67.5743 16.6711 66.3932 16.6666 64.9998V59.8332C15.6666 58.7221 14.8611 57.4865 14.25 56.1265C13.6389 54.7665 13.3333 53.2798 13.3333 51.6665V19.9998C13.3333 15.3887 15.4722 12.0143 19.75 9.8765C24.0278 7.73873 30.7778 6.66873 40 6.6665C49.5555 6.6665 56.3889 7.69428 60.5 9.74984C64.6111 11.8054 66.6666 15.2221 66.6666 19.9998V51.6665C66.6666 53.2776 66.3611 54.7643 65.75 56.1265C65.1389 57.4887 64.3333 58.7243 63.3333 59.8332V64.9998C63.3333 66.3887 62.8478 67.5698 61.8766 68.5432C60.9055 69.5165 59.7244 70.0021 58.3333 69.9998C56.9422 69.9976 55.7622 69.5121 54.7933 68.5432C53.8244 67.5743 53.3378 66.3932 53.3333 64.9998V63.3332H26.6666ZM40.1666 16.6665H58.8333H21.5H40.1666ZM53.3333 39.9998H20H60H53.3333ZM20 33.3332H60V23.3332H20V33.3332ZM28.3333 53.3332C29.7222 53.3332 30.9033 52.8476 31.8766 51.8765C32.85 50.9054 33.3355 49.7243 33.3333 48.3332C33.3311 46.9421 32.8455 45.7621 31.8766 44.7932C30.9078 43.8243 29.7266 43.3376 28.3333 43.3332C26.94 43.3287 25.76 43.8154 24.7933 44.7932C23.8266 45.7709 23.34 46.9509 23.3333 48.3332C23.3266 49.7154 23.8133 50.8965 24.7933 51.8765C25.7733 52.8565 26.9533 53.3421 28.3333 53.3332ZM51.6666 53.3332C53.0555 53.3332 54.2366 52.8476 55.21 51.8765C56.1833 50.9054 56.6689 49.7243 56.6666 48.3332C56.6644 46.9421 56.1789 45.7621 55.21 44.7932C54.2411 43.8243 53.06 43.3376 51.6666 43.3332C50.2733 43.3287 49.0933 43.8154 48.1266 44.7932C47.16 45.7709 46.6733 46.9509 46.6666 48.3332C46.66 49.7154 47.1466 50.8965 48.1266 51.8765C49.1066 52.8565 50.2866 53.3421 51.6666 53.3332ZM21.5 16.6665H58.8333C58 15.7221 56.2089 14.9309 53.46 14.2932C50.7111 13.6554 46.28 13.3354 40.1666 13.3332C34.2222 13.3332 29.8755 13.6809 27.1266 14.3765C24.3778 15.0721 22.5022 15.8354 21.5 16.6665ZM26.6666 56.6665H53.3333C55.1666 56.6665 56.7366 56.0143 58.0433 54.7098C59.35 53.4054 60.0022 51.8354 60 49.9998V39.9998H20V49.9998C20 51.8332 20.6533 53.4032 21.96 54.7098C23.2666 56.0165 24.8355 56.6687 26.6666 56.6665Z" fill="#49637A"/>
</svg>
